<?xml version="1.0" encoding="UTF-8"?>
<!DOCTYPE svg PUBLIC "-//W3C//DTD SVG 1.1//EN" "http://www.w3.org/Graphics/SVG/1.1/DTD/svg11.dtd">
<!-- Creator: CorelDRAW 2020 (64-Bit Evaluation Version) -->
<svg xmlns="http://www.w3.org/2000/svg" xml:space="preserve" width="300px" height="299px" version="1.1" style="shape-rendering:geometricPrecision; text-rendering:geometricPrecision; image-rendering:optimizeQuality; fill-rule:evenodd; clip-rule:evenodd"
viewBox="0 0 64.33 64.09"
 xmlns:xlink="http://www.w3.org/1999/xlink"
 xmlns:xodm="http://www.corel.com/coreldraw/odm/2003">
 <defs>
  <style type="text/css">
   <![CDATA[
    .str2 {stroke:#CCCCCC;stroke-width:0.02;stroke-miterlimit:22.9256}
    .str0 {stroke:#930D0A;stroke-width:1.3;stroke-linecap:round;stroke-linejoin:round;stroke-miterlimit:22.9256}
    .str3 {stroke:#E6E6E6;stroke-width:0.51;stroke-linecap:round;stroke-linejoin:round;stroke-miterlimit:22.9256}
    .str1 {stroke:#1A1A1A;stroke-width:0.34;stroke-miterlimit:22.9256;stroke-dasharray:0.680000 0.340000}
    .fil8 {fill:none}
    .fil3 {fill:none;fill-rule:nonzero}
    .fil7 {fill:black}
    .fil9 {fill:#1A1A1A}
    .fil11 {fill:#930D0A}
    .fil12 {fill:#A83B39}
    .fil4 {fill:#CCCCCC}
    .fil14 {fill:#E6E6E6}
    .fil6 {fill:#FD9272}
    .fil5 {fill:white}
    .fil1 {fill:#930D0A;fill-rule:nonzero}
    .fil15 {fill:#CCCCCC;fill-rule:nonzero}
    .fil2 {fill:#E6E6E6;fill-rule:nonzero}
    .fil10 {fill:white;fill-rule:nonzero}
    .fil13 {fill:#CCCCCC;fill-opacity:0.501961}
    .fil0 {fill:#930D0A;fill-rule:nonzero;fill-opacity:0.501961}
   ]]>
  </style>
 </defs>
 <g id="Layer_x0020_1">
  <metadata id="CorelCorpID_0Corel-Layer"/>
  <path class="fil0" d="M54.82 45.94c0.03,-0.28 0.29,-0.49 0.58,-0.45 0.29,0.03 0.49,0.28 0.46,0.57l-0.07 0.56 0.56 0.07c0.29,0.03 0.49,0.29 0.46,0.58 -0.04,0.29 -0.3,0.49 -0.59,0.46l-0.56 -0.07 -0.06 0.56c-0.04,0.28 -0.3,0.48 -0.59,0.45 -0.28,-0.04 -0.48,-0.29 -0.45,-0.58l0.07 -0.56 -0.55 -0.06c-0.29,-0.04 -0.49,-0.3 -0.46,-0.59 0.03,-0.28 0.3,-0.49 0.58,-0.45l0.55 0.06 0.07 -0.55 0 0 0 0z"/>
  <path class="fil0" d="M21.42 19.01c0.03,-0.28 0.29,-0.49 0.58,-0.45 0.29,0.03 0.49,0.29 0.46,0.57l-0.07 0.56 0.55 0.07c0.29,0.03 0.49,0.29 0.46,0.58 -0.04,0.29 -0.3,0.49 -0.58,0.46l-0.56 -0.07 -0.06 0.56c-0.04,0.28 -0.3,0.48 -0.59,0.45 -0.28,-0.04 -0.49,-0.29 -0.45,-0.58l0.07 -0.56 -0.56 -0.06c-0.29,-0.04 -0.49,-0.3 -0.46,-0.59 0.03,-0.28 0.3,-0.49 0.58,-0.45l0.56 0.06 0.07 -0.55 0 0 0 0z"/>
  <path class="fil0" d="M9.43 35.21c0.03,-0.32 0.32,-0.55 0.64,-0.52 0.34,0.05 0.56,0.34 0.51,0.66l-0.06 0.63 0.63 0.08c0.32,0.03 0.54,0.33 0.51,0.65 -0.03,0.32 -0.34,0.55 -0.66,0.52l-0.62 -0.08 -0.08 0.62c-0.04,0.34 -0.34,0.56 -0.66,0.52 -0.32,-0.04 -0.55,-0.32 -0.51,-0.65l0.08 -0.64 -0.63 -0.06c-0.32,-0.05 -0.56,-0.34 -0.51,-0.66 0.03,-0.32 0.32,-0.56 0.65,-0.51l0.63 0.06 0.08 -0.62 0 0 0 0z"/>
  <path class="fil1" d="M32 59.63c0,1.08 -0.44,2.07 -1.15,2.78 -0.71,0.71 -1.7,1.15 -2.78,1.15 -1.09,0 -2.07,-0.44 -2.78,-1.15 -0.71,-0.71 -1.15,-1.7 -1.15,-2.78 0,-1.09 0.44,-2.07 1.15,-2.78 0.71,-0.71 1.69,-1.15 2.78,-1.15 1.08,0 2.07,0.44 2.78,1.15 0.71,0.71 1.15,1.69 1.15,2.78l0 0zm-2.07 1.86c0.48,-0.47 0.77,-1.13 0.77,-1.86 0,-0.73 -0.29,-1.39 -0.77,-1.87 -0.47,-0.47 -1.13,-0.76 -1.86,-0.76 -0.73,0 -1.39,0.29 -1.86,0.76 -0.48,0.48 -0.77,1.14 -0.77,1.87 0,0.73 0.29,1.39 0.77,1.86 0.47,0.48 1.13,0.77 1.86,0.77 0.73,0 1.39,-0.29 1.86,-0.77z"/>
  <path class="fil1" d="M45.07 59.63c0,1.08 -0.44,2.07 -1.15,2.78 -0.72,0.71 -1.7,1.15 -2.78,1.15 -1.09,0 -2.07,-0.44 -2.78,-1.15 -0.71,-0.72 -1.15,-1.7 -1.15,-2.78 0,-1.09 0.44,-2.07 1.15,-2.78 0.71,-0.71 1.69,-1.15 2.78,-1.15 1.08,0 2.06,0.44 2.78,1.15 0.71,0.71 1.15,1.69 1.15,2.78l0 0zm-2.07 1.86c0.47,-0.47 0.77,-1.13 0.77,-1.86 0,-0.73 -0.3,-1.39 -0.77,-1.87 -0.48,-0.47 -1.14,-0.77 -1.86,-0.77 -0.73,0 -1.39,0.3 -1.87,0.77 -0.47,0.48 -0.77,1.14 -0.77,1.87 0,0.73 0.3,1.39 0.77,1.86 0.48,0.48 1.14,0.77 1.87,0.77 0.72,0 1.38,-0.29 1.86,-0.77l0 0z"/>
  <polygon class="fil2" points="50.73,46.49 26.85,48.44 23.31,30.5 50.73,30.5 "/>
  <polyline class="fil3 str0" points="13.12,26.7 19.86,26.7 24.78,49.21 22.49,52.53 47.91,52.53 "/>
  <polyline class="fil3 str0" points="34,28.64 48.31,28.64 48.31,44.64 24.43,46.58 20.89,28.64 25.97,28.64 "/>
  <line class="fil3 str0" x1="29.86" y1="28.64" x2="31.37" y2= "28.64" />
  <line class="fil3 str0" x1="27" y1="33.49" x2="42.94" y2= "33.49" />
  <circle class="fil4" cx="28.07" cy="59.63" r="2.03"/>
  <circle class="fil5" cx="28.07" cy="60.67" r="0.99"/>
  <circle class="fil4" cx="41.19" cy="59.63" r="2.03"/>
  <circle class="fil5" cx="47.7" cy="42.14" r="6.19"/>
  <circle class="fil6" cx="47.7" cy="42.14" r="4.91"/>
  <circle class="fil7" cx="47.7" cy="42.14" r="4.91"/>
  <circle class="fil5" cx="41.19" cy="60.67" r="0.99"/>
  <path class="fil8 str1" d="M42.03 41.82c-4.73,-2.57 -7.14,0.89 -10.61,0.5 -2.81,-0.31 6.18,-6.56 -2.98,-12.45 -5.12,-3.29 -1.38,-12.48 7.09,-12.35"/>
  <path class="fil9" d="M48.31 41.53l2.42 -2.42 0.45 -0.45c-0.14,-0.14 -0.29,-0.27 -0.45,-0.39 -0.68,-0.54 -1.51,-0.9 -2.42,-1.01 -0.2,-0.02 -0.4,-0.03 -0.61,-0.03 -2.71,0 -4.91,2.2 -4.91,4.91 0,1.07 0.34,2.07 0.93,2.88 0.15,0.21 0.32,0.41 0.51,0.59l0.7 -0.69 3.38 -3.39 0 0z"/>
  <path class="fil10" d="M48.63 39.5l-0.53 3.98 -0.77 0 -0.51 -3.98c0,-0.11 0.01,-0.19 0.04,-0.25 0.03,-0.06 0.1,-0.13 0.2,-0.21 0.18,-0.14 0.4,-0.21 0.66,-0.21 0.25,0 0.46,0.07 0.64,0.19 0.18,0.12 0.27,0.28 0.27,0.48zm0.16 5.17c0,0.23 -0.1,0.42 -0.31,0.56 -0.21,0.14 -0.48,0.22 -0.81,0.22 -0.31,0 -0.56,-0.07 -0.77,-0.2 -0.19,-0.15 -0.28,-0.34 -0.28,-0.58 0,-0.26 0.1,-0.45 0.3,-0.58 0.2,-0.13 0.46,-0.2 0.77,-0.2 0.27,0 0.52,0.07 0.75,0.2 0.23,0.14 0.35,0.33 0.35,0.58l0 0z"/>
  <path class="fil5" d="M27.17 57.15c-0.37,0.14 -0.69,0.35 -0.96,0.61 -0.48,0.48 -0.77,1.14 -0.77,1.87 0,0.73 0.29,1.39 0.77,1.86 0.47,0.48 1.13,0.77 1.86,0.77 0.49,0 0.94,-0.13 1.34,-0.36 0.19,-0.11 0.36,-0.25 0.52,-0.41 0.48,-0.47 0.77,-1.13 0.77,-1.86 0,-0.73 -0.29,-1.39 -0.77,-1.87 -0.47,-0.47 -1.13,-0.76 -1.86,-0.76 -0.32,0 -0.62,0.05 -0.9,0.15l0 0zm1.77 4.31c-0.26,0.13 -0.56,0.2 -0.87,0.2 -1.12,0 -2.03,-0.91 -2.03,-2.03 0,-0.82 0.48,-1.52 1.17,-1.84 0.26,-0.13 0.55,-0.19 0.86,-0.19 1.12,0 2.03,0.91 2.03,2.03 0,0.81 -0.47,1.51 -1.16,1.83l0 0z"/>
  <path class="fil5" d="M40.24 57.15c-0.37,0.14 -0.7,0.35 -0.97,0.61 -0.47,0.48 -0.77,1.14 -0.77,1.87 0,0.73 0.3,1.39 0.77,1.86 0.48,0.48 1.14,0.77 1.87,0.77 0.48,0 0.94,-0.13 1.33,-0.36 0.19,-0.11 0.37,-0.25 0.53,-0.41 0.47,-0.47 0.77,-1.13 0.77,-1.86 0,-0.73 -0.3,-1.39 -0.77,-1.87 -0.48,-0.47 -1.13,-0.76 -1.86,-0.76 -0.32,0 -0.62,0.05 -0.9,0.15l0 0zm1.77 4.31c-0.26,0.13 -0.56,0.2 -0.87,0.2 -1.13,0 -2.04,-0.91 -2.04,-2.03 0,-0.82 0.48,-1.52 1.18,-1.84 0.26,-0.13 0.55,-0.19 0.86,-0.19 1.12,0 2.03,0.91 2.03,2.03 0,0.81 -0.47,1.51 -1.16,1.83l0 0z"/>
  <g id="_1658884111376">
   <path class="fil11" d="M44.2 19.23c-0.1,-0.46 -0.33,-0.35 -0.24,-0.65 0.19,-0.64 -0.17,-0.85 -0.17,-1 0,-0.07 0.18,-0.56 -0.22,-0.98 -0.09,-0.09 -0.06,-0.11 -0.06,-0.26 0,-0.14 -0.03,-0.46 -0.1,-0.52 -0.16,-0.28 -0.13,-0.56 -1.39,-0.54 -0.37,0.01 -0.71,0.03 -1.05,0.1 -0.56,0.12 -0.91,0.28 -1.35,0.38 -0.27,0.06 -0.98,0.18 -1.25,0.19 -0.29,0.01 -0.22,0.15 -0.22,0.65l0 2.31c0,0.11 -0.02,0.49 0,0.58 0.06,0.08 0.88,0.21 1.18,0.46 1,0.86 1.2,1.54 1.58,2.67 0.05,0.12 0.14,0.33 0.26,0.36 0.13,0.04 0.44,-0.03 0.54,-0.07 0.3,-0.12 0.43,-0.39 0.49,-0.76 0.06,-0.38 -0.03,-0.74 -0.17,-1.03 -0.07,-0.14 -0.14,-0.26 -0.2,-0.41 -0.03,-0.06 -0.08,-0.18 -0.07,-0.25 0.04,-0.34 1.53,-0.05 1.95,-0.23 0.33,-0.13 0.56,-0.69 0.49,-1l0 0z"/>
   <path class="fil9" d="M37.66 15.6l-1.53 0.01 -0.01 4.05c0.14,0.01 1.48,0.01 1.54,0l0 -4.06 0 0z"/>
   <path class="fil12" d="M39.61 20.09l2.82 -4.8c-0.12,-0.01 -0.25,-0.01 -0.41,-0.01 -0.37,0.01 -0.71,0.03 -1.05,0.1 -0.56,0.12 -0.91,0.28 -1.35,0.38 -0.27,0.06 -0.98,0.18 -1.25,0.19 -0.29,0.01 -0.22,0.15 -0.22,0.65l0 1.76 0 0.55c0,0.11 -0.02,0.49 0,0.58 0.06,0.08 0.88,0.21 1.18,0.46 0.08,0.07 0.16,0.14 0.23,0.21l0.05 -0.07 0 0z"/>
  </g>
  <path class="fil13" d="M1.07 4.8c0.2,-0.25 0.31,-0.37 0.57,-0.56 0.18,-0.13 0.5,-0.29 0.77,-0.33 0.02,-0.13 -0.03,-0.44 -0.02,-0.66 0.02,-0.21 0.06,-0.42 0.11,-0.62 0.1,-0.39 0.27,-0.7 0.48,-0.99 0.92,-1.28 2.63,-1.62 4.07,-0.76 0.3,0.18 0.54,0.42 0.76,0.7 0.24,0.29 0.33,0.58 0.5,0.93 0.33,-0.08 0.41,-0.19 0.83,-0.18 0.83,0.02 1.4,0.62 1.55,1.5 0.45,0.04 0.82,0.13 1.15,0.35 1.02,0.68 1.38,2.03 0.78,3.04 -0.34,0.57 -0.89,1.04 -1.78,1.17 -1.69,0.22 -3.79,0.04 -5.49,0.05 -1.44,0 -3.82,0.14 -4.51,-1.35 -0.32,-0.71 -0.17,-1.89 0.23,-2.29l0 0zm2.33 -4.17l-0.11 0.11c-1.07,0.92 -0.94,1.4 -1.19,1.71 0,0.06 -0.1,0.69 -0.1,1.15 -0.69,0.28 -1.22,0.73 -1.51,1.41 -0.33,0.76 -0.32,1.72 0.06,2.41 0.73,1.32 2.59,1.42 4.45,1.42 1.87,0 3.92,0.16 5.77,-0.04 1.22,-0.13 2.16,-0.92 2.43,-1.95 0.09,-0.35 0.17,-0.92 0.04,-1.27 -0.1,-0.63 -0.44,-1.1 -0.77,-1.42 -0.34,-0.33 -0.81,-0.58 -1.41,-0.7l-0.09 -0.19c-0.14,-0.4 -0.43,-0.8 -0.8,-1.02 -0.74,-0.44 -1.06,-0.3 -1.66,-0.25 -0.09,-0.37 -0.57,-0.91 -0.81,-1.14 -0.78,-0.69 -1.87,-1 -2.96,-0.8 -0.27,0.05 -0.51,0.14 -0.74,0.24 -0.27,0.12 -0.51,0.31 -0.6,0.33l0 0z"/>
  <path class="fil13" d="M42.16 5.19c0.22,-0.27 0.33,-0.4 0.61,-0.6 0.19,-0.14 0.54,-0.32 0.83,-0.36 0.03,-0.14 -0.03,-0.48 -0.01,-0.71 0.01,-0.23 0.06,-0.46 0.11,-0.68 0.11,-0.42 0.29,-0.75 0.52,-1.06 0.99,-1.39 2.85,-1.76 4.41,-0.83 0.32,0.2 0.58,0.46 0.82,0.76 0.25,0.32 0.36,0.63 0.54,1.01 0.36,-0.09 0.44,-0.21 0.9,-0.2 0.89,0.02 1.51,0.68 1.67,1.62 0.49,0.05 0.89,0.15 1.24,0.38 1.12,0.73 1.5,2.2 0.85,3.29 -0.37,0.61 -0.97,1.13 -1.93,1.26 -1.82,0.25 -4.1,0.05 -5.94,0.06 -1.55,0 -4.13,0.15 -4.87,-1.46 -0.35,-0.77 -0.19,-2.05 0.25,-2.48l0 0zm2.52 -4.51l-0.12 0.13c-1.16,0.98 -1.02,1.51 -1.29,1.85 0,0.06 -0.11,0.73 -0.11,1.23 -0.74,0.31 -1.31,0.79 -1.63,1.53 -0.36,0.83 -0.35,1.86 0.07,2.61 0.78,1.43 2.79,1.54 4.81,1.54 2.02,0 4.23,0.17 6.24,-0.05 1.32,-0.14 2.34,-0.99 2.63,-2.1 0.1,-0.39 0.19,-1 0.04,-1.38 -0.11,-0.68 -0.47,-1.19 -0.83,-1.54 -0.36,-0.35 -0.87,-0.63 -1.53,-0.75l-0.1 -0.22c-0.15,-0.43 -0.46,-0.86 -0.85,-1.09 -0.81,-0.48 -1.16,-0.33 -1.81,-0.27 -0.09,-0.41 -0.61,-0.99 -0.88,-1.23 -0.83,-0.76 -2.02,-1.1 -3.2,-0.87 -0.28,0.05 -0.54,0.15 -0.79,0.26 -0.29,0.12 -0.55,0.33 -0.65,0.35l0 0z"/>
  <path class="fil13" d="M56.63 3.57c0.12,-0.15 0.18,-0.22 0.34,-0.34 0.1,-0.07 0.3,-0.17 0.46,-0.2 0.01,-0.08 -0.02,-0.26 -0.01,-0.39 0.01,-0.13 0.03,-0.26 0.06,-0.38 0.07,-0.23 0.17,-0.41 0.29,-0.59 0.56,-0.77 1.59,-0.98 2.46,-0.46 0.17,0.11 0.32,0.26 0.45,0.42 0.14,0.18 0.2,0.35 0.3,0.56 0.2,-0.05 0.24,-0.11 0.5,-0.11 0.5,0.01 0.84,0.38 0.93,0.91 0.27,0.02 0.5,0.08 0.69,0.2 0.62,0.41 0.84,1.23 0.47,1.83 -0.2,0.35 -0.53,0.63 -1.07,0.71 -1.01,0.14 -2.28,0.02 -3.3,0.03 -0.87,0 -2.3,0.08 -2.71,-0.81 -0.2,-0.43 -0.1,-1.14 0.14,-1.38l0 0zm1.4 -2.51l-0.07 0.07c-0.64,0.55 -0.57,0.84 -0.72,1.03 0.01,0.03 -0.06,0.41 -0.06,0.69 -0.41,0.17 -0.73,0.44 -0.9,0.85 -0.2,0.45 -0.2,1.03 0.03,1.44 0.44,0.8 1.56,0.86 2.68,0.86 1.13,0 2.36,0.1 3.47,-0.02 0.74,-0.08 1.3,-0.55 1.46,-1.17 0.06,-0.22 0.11,-0.56 0.03,-0.77 -0.06,-0.38 -0.27,-0.66 -0.46,-0.85 -0.21,-0.2 -0.49,-0.35 -0.86,-0.43l-0.05 -0.11c-0.08,-0.25 -0.26,-0.48 -0.48,-0.61 -0.44,-0.27 -0.64,-0.18 -1,-0.15 -0.05,-0.23 -0.34,-0.55 -0.49,-0.69 -0.46,-0.42 -1.12,-0.61 -1.78,-0.48 -0.16,0.03 -0.3,0.08 -0.44,0.14 -0.16,0.07 -0.31,0.19 -0.36,0.2l0 0z"/>
  <path class="fil13" d="M18.69 5.18c-0.25,0.37 -0.48,0.82 -0.59,1.33 -0.35,1.57 0.7,3.35 2.04,4.12 1.35,0.78 2.51,0.73 4.01,0.59 0.1,0.26 0.36,0.57 0.55,0.76 0.72,0.7 1.58,1.09 2.71,1.07 1.31,-0.02 2.58,-0.82 3.13,-1.91 6.46,1.05 8.55,-5.19 3.79,-7.48 -0.21,-0.1 -0.99,-0.31 -1.06,-0.36 -0.22,-0.14 -0.46,-1.79 -2.79,-1.45 -0.14,-0.43 -0.83,-1.05 -1.2,-1.28 -1.27,-0.78 -2.6,-0.72 -3.88,-0.04 -0.37,0.21 -1.06,0.85 -1.21,1.26 -1.4,-0.08 -1.93,0.5 -2.41,1.38 -0.12,0.22 -2.14,0.62 -3.09,2.01l0 0zm13.72 5.56c-0.88,0.05 -1.43,-0.08 -2.16,-0.3 -0.34,0.51 -0.37,0.88 -1.04,1.38 -0.48,0.35 -1.02,0.63 -1.8,0.65 -1.55,0.05 -2.49,-0.88 -2.98,-1.95 -2.6,0.76 -6.53,-0.62 -5.75,-3.94 0.14,-0.58 0.43,-1.02 0.74,-1.38 0.55,-0.62 1.59,-1.24 2.8,-1.38 0.1,-0.61 0.35,-0.92 0.7,-1.17 0.49,-0.35 0.94,-0.3 1.58,-0.2 0.32,-1.25 2.63,-2.7 4.63,-1.27 0.35,0.25 0.92,0.85 1.05,1.38 0.65,-0.09 0.97,-0.42 1.71,0 0.43,0.23 0.76,0.67 0.86,1.26 1.49,0.24 2.28,0.81 2.97,1.62 0.57,0.69 0.78,1.8 0.48,2.71 -0.51,1.57 -2.22,2.49 -3.79,2.59l0 0z"/>
  <g id="_1486065730576">
   <path class="fil4" d="M55.59 52.93l0.1 0.01c0.02,-0.01 0.03,-0.02 0.04,-0.03l0 -0.03c-0.03,-0.05 -0.11,-0.03 -0.25,-0.08 -0.08,-0.03 -0.16,-0.06 -0.22,-0.1 -0.1,-0.06 -0.19,-0.13 -0.27,-0.21 -0.02,-0.02 -0.04,-0.05 -0.07,-0.08 -0.08,-0.08 -0.18,-0.24 -0.24,-0.37 -0.15,-0.34 -0.02,-0.44 -0.15,-0.41 -0.08,0.13 0.07,0.47 0.12,0.56 0.09,0.15 0.13,0.19 0.23,0.31 0.03,0.03 0.06,0.06 0.08,0.09 -0.32,0.13 -0.69,0 -0.78,-0.37 -0.06,-0.27 -0.01,-0.9 0.04,-1.17 0.16,0.04 0.36,0.13 0.49,0.2 0.21,0.11 0.41,0.26 0.52,0.48 0.08,0.17 0.07,0.37 0.01,0.54 -0.06,0.17 -0.11,0.16 -0.09,0.23 0.07,0.03 0.08,-0.01 0.11,-0.06 0.02,-0.04 0.04,-0.08 0.06,-0.13 0.04,-0.09 0.06,-0.21 0.06,-0.32 -0.02,-0.5 -0.49,-0.78 -0.9,-0.95 -0.04,-0.02 -0.25,-0.08 -0.28,-0.1l-0.02 0c-0.02,0.01 -0.03,0.02 -0.04,0.03l-0.07 0.56c0.03,0.1 -0.15,0.82 0.28,1.09 0.06,0.04 0.14,0.08 0.22,0.09 0.21,0.05 0.31,0.01 0.47,-0.05 0.04,0.02 0.08,0.05 0.12,0.08 0.25,0.16 0.37,0.15 0.43,0.19l0 0z"/>
   <path class="fil4" d="M54.18 50.94l-0.04 0 0 0.03c0.01,-0.01 0.02,-0.02 0.04,-0.03l0 0z"/>
   <path class="fil14" d="M55.72 52.94l0.01 -0.03c-0.01,0.01 -0.02,0.02 -0.04,0.03l0.03 0 0 0z"/>
  </g>
  <g id="_1486065731536">
   <path class="fil4" d="M2.62 53.06l0 0.28c0.03,0.03 0.06,0.05 0.09,0.08l0.08 0c0.13,-0.11 0.05,-0.32 0.14,-0.71 0.04,-0.21 0.12,-0.45 0.2,-0.62 0.14,-0.29 0.28,-0.54 0.47,-0.77 0.06,-0.08 0.13,-0.15 0.19,-0.23 0.19,-0.24 0.58,-0.56 0.91,-0.75 0.88,-0.51 1.18,-0.2 1.07,-0.54 -0.38,-0.18 -1.24,0.35 -1.46,0.5 -0.38,0.28 -0.49,0.41 -0.78,0.71 -0.07,0.08 -0.13,0.2 -0.21,0.26 -0.44,-0.83 -0.22,-1.86 0.76,-2.22 0.68,-0.26 2.41,-0.32 3.15,-0.26 -0.05,0.43 -0.23,1 -0.38,1.38 -0.23,0.6 -0.59,1.19 -1.13,1.53 -0.44,0.27 -0.96,0.32 -1.46,0.21 -0.46,-0.11 -0.45,-0.26 -0.64,-0.16 -0.05,0.18 0.06,0.2 0.19,0.26 0.12,0.05 0.24,0.09 0.38,0.13 0.27,0.07 0.59,0.09 0.88,0.04 1.33,-0.19 1.95,-1.55 2.25,-2.69 0.04,-0.13 0.15,-0.72 0.18,-0.79l0 -0.07c-0.03,-0.03 -0.05,-0.06 -0.08,-0.09l-1.54 0c-0.26,0.11 -2.25,-0.15 -2.84,1.1 -0.08,0.17 -0.15,0.38 -0.16,0.61 -0.05,0.57 0.06,0.83 0.29,1.24 -0.05,0.12 -0.13,0.23 -0.19,0.36 -0.35,0.7 -0.28,1.03 -0.36,1.21l0 0z"/>
   <path class="fil4" d="M7.5 48.63l0 -0.09 -0.08 0c0.03,0.03 0.05,0.06 0.08,0.09z"/>
   <path class="fil14" d="M2.62 53.42l0.09 0c-0.03,-0.03 -0.06,-0.05 -0.09,-0.08l0 0.08z"/>
  </g>
  <g id="_1486065732160">
   <path class="fil4" d="M9.71 45.05l0.09 0.13c0.03,0.01 0.05,0.01 0.07,0.02l0.04 -0.03c0.03,-0.09 -0.08,-0.17 -0.17,-0.38 -0.04,-0.11 -0.08,-0.24 -0.1,-0.36 -0.03,-0.17 -0.04,-0.34 -0.03,-0.51 0.01,-0.06 0.01,-0.11 0.02,-0.16 0.01,-0.18 0.09,-0.46 0.18,-0.65 0.25,-0.53 0.49,-0.48 0.33,-0.6 -0.24,0.04 -0.47,0.56 -0.52,0.7 -0.09,0.26 -0.1,0.35 -0.14,0.59 -0.01,0.06 0,0.13 -0.02,0.19 -0.47,-0.25 -0.7,-0.8 -0.36,-1.29 0.24,-0.34 1.03,-0.93 1.4,-1.14 0.11,0.22 0.21,0.55 0.27,0.77 0.08,0.36 0.1,0.75 -0.04,1.09 -0.12,0.26 -0.35,0.46 -0.62,0.56 -0.25,0.1 -0.29,0.03 -0.35,0.14 0.03,0.1 0.09,0.07 0.18,0.06 0.07,-0.01 0.13,-0.03 0.21,-0.06 0.15,-0.06 0.31,-0.15 0.43,-0.27 0.56,-0.51 0.41,-1.35 0.19,-1.99 -0.03,-0.07 -0.17,-0.38 -0.17,-0.42l-0.03 -0.04c-0.02,-0.01 -0.04,-0.01 -0.06,-0.01l-0.72 0.49c-0.09,0.14 -1.11,0.66 -0.98,1.43 0.02,0.11 0.05,0.23 0.11,0.34 0.17,0.29 0.31,0.37 0.55,0.49 0.01,0.07 0.01,0.15 0.02,0.23 0.06,0.45 0.2,0.58 0.22,0.68l0 0z"/>
   <path class="fil14" d="M10.57 41.4l-0.02 -0.04 -0.04 0.03c0.02,0 0.04,0 0.06,0.01z"/>
   <path class="fil14" d="M9.83 45.22l0.04 -0.02c-0.02,-0.01 -0.04,-0.01 -0.07,-0.02l0.03 0.04z"/>
  </g>
  <g id="_1486065797872">
   <path class="fil4" d="M60.09 44.51c0.09,-0.16 0.16,-0.38 0.25,-0.55 0.21,-0.42 0.31,-0.6 0.6,-0.97 0.6,-0.77 1.21,-0.76 1.84,-1.29 0.17,-0.14 0.22,-0.22 0.33,-0.36l0.05 -0.05c-0.07,0.18 -0.37,0.54 -0.5,0.63 -0.39,0.3 -0.61,0.41 -0.92,0.64 -0.08,0.06 -0.17,0.13 -0.24,0.21 -0.08,0.08 -0.14,0.12 -0.22,0.22 -0.03,0.05 -0.07,0.08 -0.1,0.13l-0.26 0.4c-0.23,0.39 -0.67,1.55 -0.71,1.96 0.01,-0.03 0.07,-0.12 0.09,-0.15 0.05,-0.06 0.06,-0.08 0.12,-0.14 0.04,-0.03 0.03,-0.03 0.06,-0.06 0.39,-0.43 1.67,-0.41 2.32,-1.01 1.07,-0.99 1.35,-2.27 1.11,-3.69 -0.02,-0.13 -0.05,-0.25 -0.09,-0.37l-0.1 -0.34c-0.03,0.04 -0.12,0.28 -0.16,0.37 -0.07,0.12 -0.13,0.23 -0.21,0.32 -0.53,0.57 -1.23,0.83 -1.96,1.21 -0.72,0.37 -1.07,1.15 -1.22,1.95 -0.04,0.19 -0.15,0.79 -0.08,0.94l0 0z"/>
   <path class="fil4" d="M56.66 41.84c-0.06,0.12 -0.03,0.72 -0.01,0.89 0.06,0.46 0.22,1.01 0.47,1.38 0.22,0.32 0.27,0.38 0.55,0.63 0.31,0.27 0.69,0.43 1.09,0.55 0.25,0.07 0.46,0.12 0.69,0.23 0.39,0.18 0.41,0.33 0.53,0.43 0.01,-0.5 -0.09,-1.21 -0.25,-1.64 -0.11,-0.3 -0.24,-0.52 -0.42,-0.74 -0.03,-0.04 -0.02,-0.02 -0.06,-0.06l-0.17 -0.17c-0.56,-0.52 -1.54,-0.73 -2,-1.01 -0.33,-0.2 -0.34,-0.38 -0.42,-0.49l0 0z"/>
  </g>
  <g id="_1486065798160">
   <path class="fil4" d="M11.58 52.26c0.01,-0.08 0,-0.18 0.01,-0.27 0.01,-0.2 0.03,-0.3 0.09,-0.49 0.12,-0.42 0.37,-0.52 0.54,-0.84 0.05,-0.09 0.06,-0.13 0.08,-0.21l0.01 -0.03c0,0.09 -0.06,0.29 -0.1,0.35 -0.11,0.19 -0.18,0.27 -0.27,0.41 -0.03,0.04 -0.05,0.08 -0.07,0.13 -0.02,0.05 -0.04,0.08 -0.05,0.13 -0.01,0.02 -0.02,0.04 -0.03,0.07l-0.04 0.21c-0.03,0.2 -0.02,0.75 0.03,0.92 0,-0.01 0.01,-0.06 0.02,-0.08 0,-0.03 0.01,-0.04 0.02,-0.07 0.01,-0.02 0.01,-0.02 0.02,-0.04 0.09,-0.24 0.62,-0.44 0.79,-0.79 0.28,-0.59 0.18,-1.17 -0.15,-1.71 -0.03,-0.05 -0.06,-0.1 -0.1,-0.14l-0.1 -0.13c0,0.03 0,0.14 0,0.18 -0.01,0.06 -0.02,0.12 -0.04,0.17 -0.12,0.33 -0.37,0.54 -0.61,0.82 -0.23,0.28 -0.24,0.66 -0.18,1.01 0.02,0.09 0.07,0.35 0.13,0.4l0 0z"/>
   <path class="fil4" d="M9.72 51.73c-0.01,0.05 0.11,0.3 0.14,0.36 0.1,0.18 0.26,0.39 0.42,0.5 0.15,0.09 0.17,0.11 0.33,0.17 0.17,0.06 0.36,0.06 0.54,0.04 0.12,-0.01 0.22,-0.02 0.33,-0.02 0.19,0.01 0.22,0.07 0.28,0.09 -0.07,-0.2 -0.23,-0.48 -0.37,-0.63 -0.09,-0.11 -0.18,-0.18 -0.29,-0.24 -0.02,-0.01 -0.02,0 -0.04,-0.01l-0.1 -0.05c-0.31,-0.12 -0.75,-0.04 -0.99,-0.08 -0.17,-0.03 -0.2,-0.1 -0.25,-0.13l0 0z"/>
  </g>
  <path class="fil15" d="M56.81 33.29c0.37,0.24 0.63,0.57 0.76,0.99 0.13,0.42 0.12,0.84 -0.05,1.25 -0.16,0.38 -0.41,0.68 -0.77,0.89 -0.36,0.21 -0.74,0.29 -1.15,0.24l-0.09 0.2c-0.01,0.05 -0.05,0.08 -0.09,0.1 -0.05,0.02 -0.1,0.02 -0.14,0 -0.05,-0.02 -0.08,-0.05 -0.1,-0.1 -0.02,-0.04 -0.02,-0.09 0,-0.14l0.08 -0.2c-0.33,-0.25 -0.55,-0.58 -0.66,-0.97 -0.11,-0.4 -0.08,-0.79 0.07,-1.18 0.17,-0.41 0.45,-0.72 0.84,-0.93 0.39,-0.21 0.8,-0.27 1.24,-0.18l0.03 0.01 0.03 0.02 0 0zm-1.07 3.02c0.31,0.01 0.59,-0.06 0.85,-0.22 0.26,-0.16 0.46,-0.38 0.58,-0.66l-0.74 0.31c-0.02,0.01 -0.05,0.01 -0.07,0 -0.03,-0.01 -0.05,-0.04 -0.06,-0.08 0,-0.04 0.02,-0.07 0.06,-0.09l0.88 -0.37c0.05,-0.17 0.06,-0.34 0.04,-0.51l-0.51 0.21c-0.02,0.01 -0.05,0.01 -0.07,0 -0.04,-0.01 -0.05,-0.04 -0.06,-0.08 0,-0.04 0.02,-0.07 0.06,-0.09l0.55 -0.23c-0.08,-0.38 -0.29,-0.67 -0.61,-0.89 -0.38,-0.07 -0.73,0 -1.06,0.21l0.23 0.55c0.02,0.04 0.01,0.08 -0.02,0.1 -0.03,0.03 -0.06,0.04 -0.1,0.02 -0.02,-0.01 -0.04,-0.02 -0.05,-0.04l-0.21 -0.52c-0.13,0.11 -0.24,0.24 -0.33,0.4l0.37 0.88c0.02,0.04 0.01,0.08 -0.02,0.1 -0.03,0.03 -0.06,0.03 -0.09,0.02 -0.03,-0.01 -0.05,-0.03 -0.06,-0.05l-0.3 -0.74c-0.11,0.29 -0.13,0.59 -0.05,0.88 0.07,0.3 0.22,0.55 0.45,0.75l0.8 -1.96c0.02,-0.04 0.05,-0.08 0.1,-0.1 0.04,-0.02 0.09,-0.02 0.14,0 0.04,0.02 0.07,0.05 0.09,0.1 0.02,0.05 0.02,0.09 0.01,0.14l-0.8 1.96 0 0z"/>
  <path class="fil15" d="M19.42 43.59c0.49,0.31 0.82,0.74 0.99,1.29 0.17,0.54 0.15,1.08 -0.06,1.62 -0.21,0.5 -0.54,0.89 -1.01,1.16 -0.46,0.27 -0.96,0.38 -1.49,0.31l-0.11 0.27c-0.02,0.06 -0.07,0.1 -0.13,0.12 -0.06,0.02 -0.12,0.02 -0.18,0 -0.06,-0.02 -0.1,-0.07 -0.13,-0.12 -0.02,-0.06 -0.02,-0.12 0,-0.18l0.11 -0.27c-0.43,-0.32 -0.72,-0.75 -0.86,-1.26 -0.14,-0.52 -0.11,-1.03 0.09,-1.54 0.22,-0.53 0.58,-0.93 1.09,-1.2 0.51,-0.27 1.05,-0.35 1.61,-0.23l0.04 0.01 0.04 0.02 0 0zm-1.39 3.92c0.4,0.02 0.77,-0.07 1.11,-0.28 0.34,-0.2 0.59,-0.49 0.75,-0.86l-0.96 0.41c-0.03,0.01 -0.06,0.01 -0.09,0 -0.05,-0.02 -0.07,-0.06 -0.08,-0.11 0,-0.05 0.02,-0.09 0.07,-0.11l1.16 -0.49c0.05,-0.22 0.07,-0.44 0.05,-0.66l-0.67 0.28c-0.03,0.01 -0.06,0.01 -0.09,0 -0.04,-0.02 -0.07,-0.06 -0.07,-0.11 0,-0.05 0.02,-0.09 0.07,-0.11l0.72 -0.31c-0.11,-0.49 -0.38,-0.87 -0.8,-1.15 -0.49,-0.09 -0.95,0 -1.38,0.27l0.31 0.72c0.02,0.05 0.01,0.09 -0.03,0.13 -0.04,0.04 -0.08,0.04 -0.13,0.03 -0.03,-0.02 -0.05,-0.04 -0.06,-0.07l-0.28 -0.67c-0.17,0.15 -0.32,0.32 -0.43,0.52l0.48 1.15c0.02,0.05 0.01,0.1 -0.02,0.13 -0.04,0.04 -0.08,0.04 -0.13,0.02 -0.03,-0.01 -0.05,-0.03 -0.06,-0.06l-0.4 -0.96c-0.15,0.38 -0.17,0.76 -0.07,1.14 0.1,0.39 0.29,0.71 0.59,0.98l1.04 -2.55c0.02,-0.06 0.06,-0.1 0.13,-0.13 0.06,-0.02 0.12,-0.03 0.18,0 0.06,0.02 0.1,0.06 0.13,0.13 0.02,0.06 0.02,0.12 0,0.18l-1.04 2.54 0 0z"/>
  <g id="_1486065782032">
   <path class="fil4" d="M14.56 63.07c0.03,-0.05 0.05,-0.11 0.08,-0.17 0.06,-0.13 0.09,-0.18 0.18,-0.3 0.19,-0.23 0.38,-0.23 0.58,-0.4 0.05,-0.04 0.06,-0.07 0.1,-0.11l0.01 -0.02c-0.02,0.06 -0.11,0.17 -0.15,0.2 -0.12,0.09 -0.19,0.13 -0.29,0.2 -0.02,0.02 -0.05,0.04 -0.07,0.06 -0.03,0.03 -0.05,0.04 -0.07,0.07 -0.01,0.02 -0.02,0.03 -0.03,0.04l-0.08 0.13c-0.07,0.12 -0.21,0.48 -0.22,0.6 0,-0.01 0.02,-0.03 0.03,-0.04 0.01,-0.02 0.02,-0.03 0.03,-0.04 0.01,-0.01 0.01,-0.01 0.02,-0.02 0.12,-0.14 0.52,-0.13 0.72,-0.32 0.33,-0.3 0.42,-0.7 0.34,-1.14 0,-0.04 -0.01,-0.08 -0.02,-0.12l-0.03 -0.1c-0.01,0.01 -0.04,0.09 -0.05,0.11 -0.02,0.04 -0.04,0.07 -0.07,0.1 -0.16,0.18 -0.38,0.26 -0.61,0.38 -0.22,0.11 -0.33,0.36 -0.38,0.6 -0.01,0.06 -0.04,0.25 -0.02,0.29l0 0z"/>
   <path class="fil4" d="M13.5 62.25c-0.02,0.03 -0.01,0.22 -0.01,0.27 0.02,0.14 0.07,0.32 0.15,0.43 0.07,0.1 0.08,0.12 0.17,0.19 0.09,0.09 0.21,0.14 0.34,0.17 0.07,0.03 0.14,0.05 0.21,0.08 0.12,0.05 0.13,0.1 0.16,0.13 0.01,-0.16 -0.02,-0.37 -0.07,-0.51 -0.03,-0.09 -0.08,-0.16 -0.13,-0.23 -0.01,-0.01 -0.01,0 -0.02,-0.01l-0.05 -0.06c-0.18,-0.16 -0.48,-0.23 -0.62,-0.31 -0.1,-0.06 -0.11,-0.12 -0.13,-0.15l0 0z"/>
  </g>
  <g id="_1486065784672">
   <path class="fil4" d="M46.8 63.14c0.02,-0.04 0.03,-0.09 0.05,-0.13 0.05,-0.09 0.08,-0.13 0.14,-0.22 0.14,-0.17 0.28,-0.17 0.43,-0.29 0.03,-0.04 0.05,-0.06 0.07,-0.09l0.01 -0.01c-0.01,0.04 -0.08,0.12 -0.11,0.15 -0.09,0.06 -0.14,0.09 -0.21,0.14 -0.02,0.02 -0.04,0.03 -0.06,0.05 -0.02,0.02 -0.03,0.03 -0.05,0.05 -0.01,0.01 -0.01,0.02 -0.02,0.03l-0.06 0.09c-0.05,0.09 -0.16,0.36 -0.16,0.45 0,0 0.01,-0.02 0.02,-0.03 0.01,-0.02 0.01,-0.02 0.02,-0.03 0.01,-0.01 0.01,-0.01 0.02,-0.02 0.09,-0.1 0.38,-0.09 0.53,-0.23 0.25,-0.22 0.31,-0.52 0.26,-0.85 -0.01,-0.02 -0.02,-0.05 -0.02,-0.08l-0.03 -0.08c-0.01,0.01 -0.03,0.07 -0.03,0.09 -0.02,0.02 -0.04,0.05 -0.05,0.07 -0.13,0.13 -0.29,0.19 -0.45,0.28 -0.17,0.08 -0.25,0.26 -0.28,0.44 -0.01,0.05 -0.04,0.19 -0.02,0.22l0 0z"/>
   <path class="fil4" d="M46.01 62.53c-0.01,0.02 -0.01,0.16 0,0.2 0.01,0.11 0.05,0.23 0.11,0.32 0.05,0.07 0.06,0.09 0.12,0.14 0.07,0.07 0.16,0.1 0.25,0.13 0.06,0.02 0.11,0.03 0.16,0.05 0.09,0.04 0.1,0.08 0.12,0.1 0.01,-0.11 -0.02,-0.28 -0.05,-0.37 -0.03,-0.07 -0.06,-0.12 -0.1,-0.18 -0.01,0 -0.01,0 -0.01,-0.01l-0.04 -0.04c-0.13,-0.12 -0.36,-0.17 -0.46,-0.23 -0.08,-0.05 -0.08,-0.09 -0.1,-0.11l0 0z"/>
  </g>
  <path class="fil15 str2" d="M16.86 64.08c-0.14,0 -0.25,-0.12 -0.25,-0.26 0,-0.14 0.11,-0.25 0.25,-0.25l30.61 0c0.14,0 0.25,0.11 0.25,0.25 0,0.14 -0.11,0.26 -0.25,0.26l-30.61 0z"/>
  <path class="fil15" d="M12.48 64.08c-0.14,0 -0.25,-0.12 -0.25,-0.26 0,-0.14 0.11,-0.25 0.25,-0.25l2.95 0c0.14,0 0.26,0.11 0.26,0.25 0,0.14 -0.12,0.26 -0.26,0.26l-2.95 0z"/>
  <path class="fil15" d="M8.79 64.08c-0.14,0 -0.25,-0.12 -0.25,-0.26 0,-0.14 0.11,-0.25 0.25,-0.25l2.49 0c0.14,0 0.25,0.11 0.25,0.25 0,0.14 -0.11,0.26 -0.25,0.26l-2.49 0z"/>
  <path class="fil15" d="M48.67 64.08c-0.14,0 -0.25,-0.12 -0.25,-0.26 0,-0.14 0.11,-0.25 0.25,-0.25l2.49 0c0.14,0 0.25,0.11 0.25,0.25 0,0.14 -0.11,0.26 -0.25,0.26l-2.49 0z"/>
  <path class="fil15" d="M61.59 64.08c-0.14,0 -0.25,-0.12 -0.25,-0.26 0,-0.14 0.11,-0.25 0.25,-0.25l2.49 0c0.14,0 0.25,0.11 0.25,0.25 0,0.14 -0.11,0.26 -0.25,0.26l-2.49 0z"/>
  <path class="fil15" d="M0.26 64.08c-0.15,0 -0.26,-0.12 -0.26,-0.26 0,-0.14 0.11,-0.25 0.26,-0.25l7.32 0c0.14,0 0.26,0.11 0.26,0.25 0,0.14 -0.12,0.26 -0.26,0.26l-7.32 0z"/>
  <g id="_1486065762448">
   <g>
    <path class="fil15" d="M1.44 58.65c-0.19,0 -0.34,-0.15 -0.34,-0.34 0,-0.19 0.15,-0.34 0.34,-0.34l2.13 0c0.19,0 0.34,0.15 0.34,0.34 0,0.19 -0.15,0.34 -0.34,0.34l-2.13 0z"/>
    <path class="fil15" d="M1.44 59.73c-0.19,0 -0.34,-0.15 -0.34,-0.34 0,-0.19 0.15,-0.34 0.34,-0.34l1.25 0c0.19,0 0.34,0.15 0.34,0.34 0,0.19 -0.15,0.34 -0.34,0.34l-1.25 0z"/>
    <line class="fil3 str3" x1="1.44" y1="60.61" x2="2.69" y2= "60.61" />
    <path class="fil15" d="M1.44 60.95c-0.19,0 -0.34,-0.16 -0.34,-0.34 0,-0.19 0.15,-0.34 0.34,-0.34l1.25 0c0.19,0 0.34,0.15 0.34,0.34 0,0.18 -0.15,0.34 -0.34,0.34l-1.25 0z"/>
    <path class="fil15" d="M1.44 62.3c-0.19,0 -0.34,-0.15 -0.34,-0.34 0,-0.18 0.15,-0.34 0.34,-0.34l1.25 0c0.19,0 0.34,0.16 0.34,0.34 0,0.19 -0.15,0.34 -0.34,0.34l-1.25 0z"/>
    <path class="fil15" d="M1.1 58.31c0,-0.19 0.15,-0.34 0.34,-0.34 0.18,0 0.34,0.15 0.34,0.34l0 4.57c0,0.19 -0.16,0.34 -0.34,0.34 -0.19,0 -0.34,-0.15 -0.34,-0.34l0 -4.57z"/>
   </g>
   <g>
    <path class="fil15" d="M12.15 57.97c0.19,0 0.34,0.15 0.34,0.34 0,0.19 -0.15,0.34 -0.34,0.34l-2.14 0c-0.18,0 -0.34,-0.15 -0.34,-0.34 0,-0.19 0.16,-0.34 0.34,-0.34l2.14 0z"/>
    <path class="fil15" d="M12.15 59.05c0.19,0 0.34,0.15 0.34,0.34 0,0.19 -0.15,0.34 -0.34,0.34l-1.25 0c-0.19,0 -0.34,-0.15 -0.34,-0.34 0,-0.19 0.15,-0.34 0.34,-0.34l1.25 0z"/>
    <line class="fil3 str3" x1="12.15" y1="60.61" x2="10.9" y2= "60.61" />
    <path class="fil15" d="M12.15 60.27c0.19,0 0.34,0.15 0.34,0.34 0,0.18 -0.15,0.34 -0.34,0.34l-1.25 0c-0.19,0 -0.34,-0.16 -0.34,-0.34 0,-0.19 0.15,-0.34 0.34,-0.34l1.25 0z"/>
    <path class="fil15" d="M12.15 61.62c0.19,0 0.34,0.16 0.34,0.34 0,0.19 -0.15,0.34 -0.34,0.34l-1.25 0c-0.19,0 -0.34,-0.15 -0.34,-0.34 0,-0.18 0.15,-0.34 0.34,-0.34l1.25 0z"/>
    <path class="fil15" d="M11.81 58.31c0,-0.19 0.15,-0.34 0.34,-0.34 0.19,0 0.34,0.15 0.34,0.34l0 4.57c0,0.19 -0.15,0.34 -0.34,0.34 -0.19,0 -0.34,-0.15 -0.34,-0.34l0 -4.57z"/>
   </g>
   <g>
    <path class="fil15" d="M4.92 56.92c-0.18,0 -0.34,-0.15 -0.34,-0.34 0,-0.18 0.16,-0.34 0.34,-0.34l3.23 0c0.19,0 0.34,0.16 0.34,0.34 0,0.19 -0.15,0.34 -0.34,0.34l-3.23 0z"/>
    <path class="fil15" d="M5.76 58.41c-0.19,0 -0.34,-0.15 -0.34,-0.34 0,-0.19 0.15,-0.34 0.34,-0.34l1.55 0c0.19,0 0.34,0.15 0.34,0.34 0,0.19 -0.15,0.34 -0.34,0.34l-1.55 0z"/>
    <path class="fil15" d="M5.76 60.18c-0.19,0 -0.34,-0.15 -0.34,-0.34 0,-0.18 0.15,-0.34 0.34,-0.34l1.55 0c0.19,0 0.34,0.16 0.34,0.34 0,0.19 -0.15,0.34 -0.34,0.34l-1.55 0z"/>
    <path class="fil15" d="M5.76 61.96c-0.19,0 -0.34,-0.16 -0.34,-0.34 0,-0.19 0.15,-0.34 0.34,-0.34l1.55 0c0.19,0 0.34,0.15 0.34,0.34 0,0.18 -0.15,0.34 -0.34,0.34l-1.55 0z"/>
    <path class="fil15" d="M4.58 56.58c0,-0.18 0.16,-0.34 0.34,-0.34 0.19,0 0.34,0.16 0.34,0.34l0 6.3c0,0.19 -0.15,0.34 -0.34,0.34 -0.18,0 -0.34,-0.15 -0.34,-0.34l0 -6.3z"/>
    <path class="fil15" d="M7.81 56.58c0,-0.18 0.15,-0.34 0.34,-0.34 0.19,0 0.34,0.16 0.34,0.34l0 6.3c0,0.19 -0.15,0.34 -0.34,0.34 -0.19,0 -0.34,-0.15 -0.34,-0.34l0 -6.3z"/>
   </g>
  </g>
  <path class="fil15" d="M52.44 64.08c-0.14,0 -0.25,-0.12 -0.25,-0.26 0,-0.14 0.11,-0.25 0.25,-0.25l7.33 0c0.14,0 0.25,0.11 0.25,0.25 0,0.14 -0.11,0.26 -0.25,0.26l-7.33 0z"/>
  <path class="fil4" d="M18.62 60.77c-0.01,0.03 -0.01,0.02 -0.05,0.04 -0.05,0.02 -0.17,0.08 -0.2,0 -0.02,0 -0.02,-0.01 -0.04,-0.01l0 -0.07c-0.03,-0.01 -0.02,-0.01 -0.02,-0.06l0.05 -0.4c0,0 0,-0.01 0,-0.01 0.02,-0.08 0.01,-0.06 0.04,-0.08 -0.01,-0.05 0.01,-0.11 0.02,-0.16 0.01,-0.02 0.02,-0.08 0.03,-0.1 0.01,-0.03 0.16,-0.1 0.2,-0.09 0,0.08 0.02,0.17 0.05,0.25 0.01,0.04 0.03,0.06 0.04,0.12l0.14 0.22c0.01,0.01 0.02,0.02 0.03,0.04 0.03,0.03 0.04,0.04 0.05,0.08 -0.03,0.02 -0.05,0.04 -0.08,0.07 0,0 -0.01,0 -0.01,0l-0.03 0.03c-0.02,0.02 -0.03,0.02 -0.04,0.03 -0.02,0.02 -0.05,0.04 -0.08,0.06 -0.07,0.04 -0.04,0.04 -0.1,0.04l0 0zm-1.66 -0.56c0.02,-0.04 0.03,-0.03 0.07,-0.08 0.02,-0.02 0.02,-0.02 0.03,-0.04 0,-0.01 0.02,-0.03 0.02,-0.03 0.02,-0.01 0,0 0.03,-0.01 0,-0.03 0,-0.02 0.01,-0.04 0.01,-0.02 0,-0.02 0.02,-0.02 0.01,-0.04 0.02,-0.03 0.02,-0.06 0.01,-0.04 0,-0.04 0.05,-0.04l0.01 0.03c0.01,0.05 0.01,0.01 0.02,0.07 0.03,0.01 0,0 0.02,0.02 0,0 0.01,0.01 0.01,0.01 0.02,0.04 0,0 0.01,0.02 0.01,0.02 0.01,0.04 0.02,0.06l0.1 0.22c0.02,0.04 0.04,0.06 0.05,0.11l-0.07 0c-0.08,0 -0.26,-0.06 -0.3,-0.12 -0.04,0 -0.06,-0.02 -0.09,-0.04 -0.01,0 -0.04,-0.03 -0.04,-0.03 -0.02,-0.03 0,-0.03 0.01,-0.03l0 0zm0.47 -0.34l0.05 0.02c0.04,0.01 0.02,0 0.04,0.02 0.05,0 0.05,0.01 0.08,0.02l0.25 0.05c0.02,0 0.05,0 0.08,0 0.05,0.01 0.1,0 0.15,0l0.07 0c0,0.08 -0.02,0.11 -0.03,0.19l-0.01 0.01c-0.01,0.12 -0.11,0.47 -0.27,0.38 -0.08,-0.05 -0.24,-0.27 -0.28,-0.38l-0.15 -0.29c-0.01,-0.01 -0.01,0 -0.02,-0.02 -0.02,-0.02 0,0 -0.01,-0.02 0.06,-0.01 0.03,-0.01 0.05,0.02l0 0zm-0.76 -5.01c0,0.02 -0.12,0.15 -0.18,0.24l-0.07 0.13c-0.04,0.09 -0.03,0.12 -0.07,0.14 0,0.02 -0.02,0.12 -0.02,0.16l-0.03 0.07c-0.08,0 -0.17,0 -0.25,0 -0.08,0 -0.16,0.02 -0.24,0.03 -0.01,0.02 -0.04,0.01 -0.09,0.03l-0.02 0.01c-0.05,0.02 -0.04,0.02 -0.08,0.01 -0.01,0.03 0,0.02 -0.03,0.03l-0.03 0.02c-0.04,0.01 -0.02,0 -0.05,0.02 -0.13,0.08 -0.18,0.1 -0.3,0.22 -0.01,0.01 -0.01,0.01 -0.03,0.03l-0.01 0.02c-0.16,0.16 -0.23,0.33 -0.26,0.35l-0.01 0.06c-0.02,0.05 -0.03,0.07 -0.05,0.13 0,0.05 0,0.04 -0.01,0.06l-0.03 0.17c-0.01,0.08 0,0.17 -0.01,0.25 -0.07,0.04 -0.17,0.13 -0.23,0.19 -0.02,0.01 -0.02,0.02 -0.04,0.04l-0.01 0.01c-0.16,0.18 -0.2,0.31 -0.23,0.35 -0.01,0.06 -0.03,0.07 -0.04,0.12 -0.01,0.03 -0.02,0.07 -0.03,0.1 -0.01,0.08 -0.02,0.11 -0.03,0.18l0 0.26c0.01,0.06 0.03,0.1 0.02,0.15 0.03,0.04 0.03,0.12 0.07,0.21l0.03 0.07c0.02,0.07 0.14,0.25 0.2,0.31l0.11 0.11c0.02,0.02 0.02,0.03 0.05,0.04l0.01 0.17c0,0.05 0.01,0.06 0.01,0.11 0.01,0.07 0.02,0.07 0.03,0.12l0.05 0.16c0.03,0.07 0.03,0.1 0.08,0.18 0.02,0.03 0.02,0.03 0.03,0.06 0.02,0.02 0.04,0.05 0.06,0.08 0.06,0.08 0.12,0.15 0.19,0.21l0.27 0.18c0.05,0.02 0.02,-0.01 0.04,0.03 0.03,0 0.05,0.02 0.09,0.03 0.01,0.01 0.03,0.01 0.04,0.02 0.04,0.01 0.01,-0.01 0.03,0.02l0.15 0.03c0.11,0.03 0.39,0.02 0.5,0.01 0.03,-0.03 0.03,-0.01 0.08,-0.02 0.04,-0.01 0.04,-0.03 0.09,-0.02 0.02,-0.04 -0.01,-0.01 0.05,-0.03 0.14,-0.05 0.15,-0.1 0.23,-0.01 0.03,0.01 0.1,0.06 0.12,0.08 0.04,0.01 0.02,0.01 0.03,0.02l0.06 0.03c0.02,0.03 0,-0.02 0.01,0.02l0.09 0.04c0.09,0.05 0.08,0.02 0.09,0.05 0.08,0.01 0.06,0.06 0.32,0.07 0,0.05 0,0.09 0,0.14 0.01,0.06 0.02,0.06 0.02,0.11 0.01,0.1 0,0.2 0.01,0.29 0,0.06 0.01,0.11 0.01,0.26 0.01,0.09 0.01,0.19 0.01,0.28l0 0.22c0,0.1 -0.02,0.13 -0.03,0.27 0,0.04 0.01,0.06 -0.02,0.07l0 0.08 -0.04 0.23c-0.01,0.04 0,0.01 -0.02,0.03 0,0.05 -0.02,0.14 -0.03,0.2 -0.01,0.04 -0.02,0.05 -0.02,0.09 -0.01,0.05 -0.02,0.05 -0.03,0.09 0,0.02 0,0.03 0,0.05 -0.01,0.03 0,0 -0.01,0.03l-0.08 0.3 1.6 0.01c-0.01,-0.06 -0.02,-0.09 -0.03,-0.15 -0.01,-0.05 -0.03,-0.1 -0.04,-0.14 0,-0.03 0,-0.06 -0.01,-0.08 -0.01,-0.05 -0.01,-0.02 -0.02,-0.07l-0.02 -0.16c-0.02,-0.02 -0.04,-0.16 -0.04,-0.19 -0.05,-0.07 -0.08,-0.53 -0.08,-0.64l0.07 -0.62c0.01,-0.02 0,-0.01 0.01,-0.02l-0.01 -0.02c0.01,-0.06 0.01,-0.12 0.04,-0.16l0.05 -0.06c0.01,0 0.01,0 0.01,0 0,-0.01 0.01,-0.01 0.01,-0.01 0.01,-0.03 0,-0.01 0.02,-0.03 0.01,-0.01 0.01,-0.01 0.02,-0.02 0,0 0.01,0 0.01,-0.01l0.01 0c0.01,-0.04 0.05,-0.06 0.08,-0.1 0.02,-0.02 0.07,-0.07 0.09,-0.08 0.01,-0.02 0,-0.02 0.02,-0.03 0.01,-0.02 0.01,-0.01 0.03,-0.02 0.01,-0.04 0.11,-0.13 0.14,-0.15 0.01,-0.03 0.03,-0.01 0.04,-0.06 0.04,0.01 0.27,0.14 0.27,0.14 0.04,0 0.07,0.01 0.1,0.03 0.03,0.01 0.05,0.01 0.09,0.02 0.05,0 0.04,0.01 0.1,0.02 0.02,0 0.05,0 0.06,0 0.06,0.01 0.04,-0.01 0.04,0.02 0.06,-0.01 0.1,0 0.16,0 0.04,0 0.03,-0.01 0.06,-0.01 0.03,-0.01 0.05,-0.01 0.08,-0.01 0.03,0 0.05,0 0.08,-0.01 0.04,-0.01 0.04,-0.02 0.09,-0.01 0,-0.04 0.01,-0.02 0.05,-0.03 0.03,-0.01 0.04,-0.01 0.07,-0.02 0.05,-0.02 0.07,-0.05 0.13,-0.04 0,-0.04 -0.01,-0.02 0.02,-0.04l0.18 -0.11c0.02,-0.01 0.03,-0.03 0.06,-0.03 0.01,-0.04 0.01,-0.03 0.04,-0.06l0.09 -0.09c0.02,-0.01 0.01,-0.01 0.03,-0.02 0,-0.02 0.01,-0.03 0.03,-0.05 0.02,-0.03 0.01,-0.03 0.04,-0.03 0.01,-0.05 0.08,-0.14 0.11,-0.22 0.01,-0.04 0.03,-0.07 0.05,-0.11 0,-0.03 0.01,-0.04 0.01,-0.07 0.02,-0.05 0,-0.03 0.04,-0.05 -0.02,-0.04 0,-0.09 0.02,-0.19 0.02,-0.01 0.05,-0.02 0.08,-0.03 0.11,-0.05 0.2,-0.12 0.23,-0.13 0.02,-0.03 0.02,-0.02 0.04,-0.04 0.05,-0.03 0.01,-0.02 0.06,-0.03 0,-0.03 -0.01,0 0,-0.02l0.11 -0.1c0,0 0,0 0,-0.01l0.03 -0.03c0.04,-0.05 0.07,-0.1 0.11,-0.14 0,-0.02 0.02,-0.04 0.03,-0.07 0.02,-0.02 0.03,-0.04 0.04,-0.07 0.02,-0.04 0.05,-0.12 0.06,-0.14 0.02,-0.08 0.06,-0.18 0.07,-0.26l0 -0.04 -0.01 -0.39c-0.02,-0.02 -0.01,-0.01 -0.02,-0.05 -0.01,-0.03 0,-0.02 -0.01,-0.05 -0.01,-0.03 -0.03,-0.07 -0.02,-0.1 -0.03,-0.03 -0.05,-0.08 -0.07,-0.12 0,0 0,-0.01 -0.01,-0.02 -0.02,-0.04 -0.03,-0.08 -0.06,-0.12 -0.04,-0.05 -0.11,-0.14 -0.12,-0.17 -0.01,-0.03 -0.01,-0.07 0.03,-0.07 -0.01,-0.04 0,-0.05 0.01,-0.08 0.01,-0.03 0,-0.06 0.02,-0.06 0.01,-0.12 0.03,-0.4 -0.01,-0.51l-0.03 -0.16c-0.02,-0.04 -0.01,-0.01 -0.02,-0.06l-0.13 -0.25c0,-0.01 -0.02,-0.03 -0.03,-0.04l-0.02 -0.05c-0.03,-0.01 -0.04,-0.02 -0.05,-0.06 -0.02,-0.01 -0.06,-0.06 -0.08,-0.08 -0.03,-0.03 -0.06,-0.05 -0.08,-0.08 -0.02,-0.01 -0.04,-0.01 -0.04,-0.04l-0.05 -0.02c-0.13,-0.09 -0.18,-0.12 -0.32,-0.17 -0.04,-0.01 -0.03,0 -0.05,-0.02 -0.06,-0.01 -0.09,-0.02 -0.13,-0.03 -0.04,-0.01 -0.05,-0.01 -0.07,-0.02l-0.07 -0.01 -0.01 -0.04c-0.02,-0.04 -0.02,-0.03 -0.02,-0.06 -0.02,-0.02 -0.01,-0.01 -0.02,-0.02 -0.02,-0.03 0.01,0.02 -0.01,-0.02 -0.01,0 -0.01,-0.02 -0.01,-0.02 -0.05,-0.09 -0.13,-0.21 -0.2,-0.28 -0.01,0 -0.01,-0.01 -0.02,-0.01l-0.08 -0.09c-0.07,-0.06 -0.13,-0.1 -0.21,-0.14l-0.08 -0.05c-0.04,-0.02 -0.18,-0.07 -0.19,-0.09 -0.05,0.01 -0.06,-0.01 -0.1,-0.01 -0.02,-0.01 -0.08,0 -0.09,-0.02l-0.3 -0.01 -0.12 0.01c-0.03,0.02 -0.06,0.01 -0.11,0.03l-0.12 0.03c-0.03,0.01 -0.08,0.04 -0.12,0.05l-0.1 0.06c-0.02,0 0,0 -0.03,0 -0.01,-0.03 -0.02,-0.03 -0.02,-0.06 -0.03,-0.02 -0.14,-0.18 -0.25,-0.28 -0.09,-0.08 -0.15,-0.11 -0.24,-0.17 -0.09,-0.05 -0.11,-0.03 -0.13,-0.08 -0.05,0.01 -0.11,-0.03 -0.16,-0.04l-0.19 -0.04c-0.16,-0.03 -0.42,0.01 -0.57,0.06l-0.24 0.1c-0.01,0.01 -0.01,0.01 -0.01,0.01l-0.29 0.2 0 0z"/>
  <path class="fil15" d="M8.95 17.45c0.21,0.04 0.38,0.14 0.51,0.3 0.13,0.16 0.2,0.35 0.2,0.56 0,0.2 -0.06,0.37 -0.18,0.53 -0.12,0.15 -0.27,0.26 -0.46,0.31l0 0.1c0,0.03 -0.01,0.05 -0.03,0.06 -0.01,0.02 -0.03,0.03 -0.06,0.03 -0.02,0 -0.04,-0.01 -0.06,-0.03 -0.01,-0.01 -0.02,-0.03 -0.02,-0.06l0 -0.1c-0.19,-0.05 -0.35,-0.16 -0.47,-0.31 -0.12,-0.16 -0.18,-0.33 -0.18,-0.53 0,-0.21 0.07,-0.4 0.21,-0.56 0.13,-0.16 0.3,-0.26 0.51,-0.3l0.01 0 0.02 0zm0.07 1.52c0.14,-0.05 0.25,-0.13 0.34,-0.25 0.08,-0.11 0.13,-0.25 0.13,-0.39l-0.27 0.27c-0.01,0.01 -0.02,0.01 -0.03,0.01 -0.02,0 -0.03,-0.01 -0.04,-0.03 -0.01,-0.01 0,-0.03 0.01,-0.04l0.32 -0.33c-0.01,-0.08 -0.03,-0.16 -0.07,-0.23l-0.19 0.19c-0.01,0.01 -0.02,0.01 -0.03,0.01 -0.02,0 -0.03,-0.01 -0.04,-0.03 -0.01,-0.01 0,-0.03 0.01,-0.04l0.2 -0.2c-0.1,-0.15 -0.25,-0.25 -0.43,-0.28 -0.18,0.03 -0.32,0.13 -0.42,0.28l0.2 0.2c0.01,0.01 0.01,0.03 0.01,0.04 -0.01,0.02 -0.03,0.03 -0.04,0.03 -0.02,0 -0.03,0 -0.03,-0.01l-0.19 -0.19c-0.04,0.07 -0.06,0.15 -0.08,0.23l0.33 0.33c0.01,0.01 0.01,0.03 0.01,0.04 -0.01,0.02 -0.03,0.03 -0.04,0.03 -0.02,0 -0.03,0 -0.03,-0.01l-0.27 -0.27c0,0.14 0.05,0.28 0.13,0.39 0.09,0.12 0.2,0.2 0.34,0.25l0 -1c0,-0.03 0.01,-0.05 0.02,-0.06 0.02,-0.02 0.04,-0.03 0.06,-0.03 0.03,0 0.05,0.01 0.06,0.03 0.02,0.01 0.03,0.03 0.03,0.06l0 1z"/>
  <path class="fil15" d="M22.69 61.77c0.21,0.04 0.39,0.14 0.53,0.31 0.13,0.17 0.2,0.36 0.2,0.57 0,0.21 -0.06,0.39 -0.18,0.55 -0.12,0.16 -0.28,0.27 -0.48,0.32l0 0.11c0,0.02 -0.01,0.04 -0.02,0.06 -0.02,0.01 -0.04,0.02 -0.07,0.02 -0.02,0 -0.04,-0.01 -0.06,-0.02 -0.02,-0.02 -0.03,-0.04 -0.03,-0.06l0 -0.11c-0.19,-0.05 -0.35,-0.16 -0.47,-0.32 -0.13,-0.16 -0.19,-0.34 -0.19,-0.55 0,-0.21 0.07,-0.4 0.21,-0.57 0.14,-0.17 0.31,-0.27 0.53,-0.31l0.01 0 0.02 0 0 0zm0.07 1.56c0.14,-0.05 0.26,-0.13 0.35,-0.25 0.09,-0.12 0.13,-0.26 0.14,-0.41l-0.28 0.28c-0.01,0.01 -0.02,0.01 -0.03,0.01 -0.02,0 -0.03,-0.01 -0.04,-0.02 -0.01,-0.02 -0.01,-0.04 0.01,-0.05l0.33 -0.33c-0.01,-0.09 -0.04,-0.17 -0.08,-0.24l-0.19 0.19c-0.01,0.01 -0.02,0.01 -0.03,0.01 -0.02,0 -0.03,-0.01 -0.04,-0.03 -0.01,-0.01 -0.01,-0.03 0.01,-0.04l0.2 -0.21c-0.11,-0.16 -0.25,-0.25 -0.44,-0.29 -0.18,0.04 -0.33,0.13 -0.44,0.29l0.21 0.21c0.01,0.01 0.02,0.03 0.01,0.04 -0.01,0.02 -0.02,0.03 -0.04,0.03 -0.01,0 -0.03,0 -0.03,-0.01l-0.2 -0.19c-0.03,0.07 -0.06,0.15 -0.07,0.24l0.33 0.33c0.01,0.01 0.02,0.03 0.01,0.05 -0.01,0.01 -0.02,0.02 -0.04,0.02 -0.01,0 -0.03,0 -0.03,-0.01l-0.28 -0.28c0,0.15 0.05,0.29 0.14,0.41 0.09,0.12 0.2,0.2 0.34,0.25l0 -1.03c0,-0.02 0.01,-0.04 0.03,-0.06 0.02,-0.02 0.04,-0.03 0.06,-0.03 0.03,0 0.05,0.01 0.07,0.03 0.01,0.02 0.02,0.04 0.02,0.06l0 1.03 0 0z"/>
  <g id="_1486065749056">
   <path class="fil15" d="M56.1 54.63c-0.39,0 -0.71,-0.21 -0.71,-0.47 0,-0.26 0.32,-0.46 0.71,-0.46l6.7 0c0.39,0 0.7,0.2 0.7,0.46 0,0.26 -0.31,0.47 -0.7,0.47l-6.7 0z"/>
   <path class="fil15" d="M55.39 54.16c0,-0.26 0.21,-0.46 0.47,-0.46 0.25,0 0.46,0.2 0.46,0.46l0 8.6c0,0.25 -0.21,0.46 -0.46,0.46 -0.26,0 -0.47,-0.21 -0.47,-0.46l0 -8.6z"/>
   <path class="fil15" d="M62.57 54.16c0,-0.26 0.21,-0.46 0.47,-0.46 0.25,0 0.46,0.2 0.46,0.46l0 8.6c0,0.25 -0.21,0.46 -0.46,0.46 -0.26,0 -0.47,-0.21 -0.47,-0.46l0 -8.6z"/>
   <g>
    <g>
     <path class="fil15" d="M57.27 55.2l1.57 0c0.08,0 0.16,0.04 0.21,0.09 0.05,0.05 0.08,0.12 0.08,0.2l0 1.57c0,0.08 -0.03,0.15 -0.08,0.2 -0.06,0.06 -0.13,0.09 -0.21,0.09l-1.57 0c-0.07,0 -0.15,-0.03 -0.2,-0.09 -0.05,-0.05 -0.08,-0.12 -0.08,-0.2l0 -1.57c0,-0.08 0.03,-0.15 0.08,-0.2 0.05,-0.05 0.13,-0.09 0.2,-0.09zm1.4 0.47l-1.22 0 0 1.21 1.22 0 0 -1.21z"/>
     <path class="fil15" d="M60.17 55.2l1.57 0c0.08,0 0.15,0.04 0.2,0.09 0.06,0.05 0.09,0.12 0.09,0.2l0 1.57c0,0.08 -0.03,0.15 -0.09,0.2 -0.05,0.06 -0.12,0.09 -0.2,0.09l-1.57 0c-0.07,0 -0.15,-0.03 -0.2,-0.09 -0.05,-0.05 -0.09,-0.12 -0.09,-0.2l0 -1.57c0,-0.08 0.04,-0.15 0.09,-0.2 0.05,-0.05 0.12,-0.09 0.2,-0.09zm1.39 0.47l-1.21 0 0 1.21 1.21 0 0 -1.21z"/>
    </g>
    <g>
     <path class="fil15" d="M57.27 57.85l1.57 0c0.08,0 0.16,0.03 0.21,0.08 0.05,0.06 0.08,0.13 0.08,0.21l0 1.57c0,0.07 -0.03,0.15 -0.08,0.2 -0.06,0.05 -0.13,0.08 -0.21,0.08l-1.57 0c-0.07,0 -0.15,-0.03 -0.2,-0.08 -0.05,-0.05 -0.08,-0.12 -0.08,-0.2l0 -1.57c0,-0.08 0.03,-0.16 0.08,-0.21 0.05,-0.05 0.13,-0.08 0.2,-0.08zm1.4 0.46l-1.22 0 0 1.22 1.22 0 0 -1.22z"/>
     <path class="fil15" d="M60.17 57.85l1.57 0c0.08,0 0.15,0.03 0.2,0.08 0.06,0.06 0.09,0.13 0.09,0.21l0 1.57c0,0.07 -0.03,0.15 -0.09,0.2 -0.05,0.05 -0.12,0.08 -0.2,0.08l-1.57 0c-0.07,0 -0.15,-0.03 -0.2,-0.08 -0.05,-0.05 -0.09,-0.12 -0.09,-0.2l0 -1.57c0,-0.08 0.04,-0.16 0.09,-0.21 0.05,-0.05 0.12,-0.08 0.2,-0.08zm1.39 0.46l-1.21 0 0 1.22 1.21 0 0 -1.22z"/>
    </g>
    <g>
     <path class="fil15" d="M57.27 61.08l1.57 0c0.08,0 0.16,0.03 0.21,0.08 0.05,0.06 0.08,0.13 0.08,0.21l0 1.57c0,0.07 -0.03,0.14 -0.08,0.2 -0.06,0.05 -0.13,0.08 -0.21,0.08l-1.57 0c-0.07,0 -0.15,-0.03 -0.2,-0.08 -0.05,-0.05 -0.08,-0.12 -0.08,-0.2l0 -1.57c0,-0.08 0.03,-0.16 0.08,-0.21 0.05,-0.05 0.13,-0.08 0.2,-0.08zm1.4 0.46l-1.22 0 0 1.22 1.22 0 0 -1.22z"/>
     <path class="fil15" d="M60.17 61.08l1.57 0c0.08,0 0.15,0.03 0.2,0.08 0.06,0.06 0.09,0.13 0.09,0.21l0 1.57c0,0.07 -0.03,0.14 -0.09,0.2 -0.05,0.05 -0.12,0.08 -0.2,0.08l-1.57 0c-0.07,0 -0.15,-0.03 -0.2,-0.08 -0.05,-0.05 -0.09,-0.12 -0.09,-0.2l0 -1.57c0,-0.08 0.04,-0.16 0.09,-0.21 0.05,-0.05 0.12,-0.08 0.2,-0.08zm1.39 0.46l-1.21 0 0 1.22 1.21 0 0 -1.22z"/>
    </g>
   </g>
  </g>
  <g id="_1486065749056_0">
   <path class="fil15" d="M50.41 56.67c-0.29,0 -0.53,-0.16 -0.53,-0.36 0,-0.19 0.24,-0.35 0.53,-0.35l5.11 0c0.3,0 0.54,0.16 0.54,0.35 0,0.2 -0.24,0.36 -0.54,0.36l-5.11 0z"/>
   <path class="fil15" d="M49.88 56.31c0,-0.19 0.15,-0.35 0.35,-0.35 0.19,0 0.35,0.16 0.35,0.35l0 6.56c0,0.19 -0.16,0.35 -0.35,0.35 -0.2,0 -0.35,-0.16 -0.35,-0.35l0 -6.56z"/>
   <path class="fil15" d="M55.35 56.31c0,-0.19 0.16,-0.35 0.35,-0.35 0.2,0 0.36,0.16 0.36,0.35l0 6.56c0,0.19 -0.16,0.35 -0.36,0.35 -0.19,0 -0.35,-0.16 -0.35,-0.35l0 -6.56z"/>
   <g>
    <g>
     <path class="fil15" d="M51.31 57.11l1.2 0c0.06,0 0.11,0.03 0.15,0.06 0.04,0.05 0.07,0.1 0.07,0.16l0 1.2c0,0.06 -0.03,0.11 -0.07,0.15 -0.04,0.04 -0.09,0.06 -0.15,0.06l-1.2 0c-0.06,0 -0.11,-0.02 -0.15,-0.06 -0.04,-0.04 -0.07,-0.09 -0.07,-0.15l0 -1.2c0,-0.06 0.03,-0.12 0.07,-0.16 0.03,-0.03 0.09,-0.06 0.15,-0.06zm1.06 0.35l-0.92 0 0 0.93 0.92 0 0 -0.93z"/>
     <path class="fil15" d="M53.52 57.11l1.19 0c0.07,0 0.12,0.03 0.16,0.06 0.04,0.05 0.06,0.1 0.06,0.16l0 1.2c0,0.06 -0.02,0.11 -0.06,0.15 -0.04,0.04 -0.1,0.06 -0.16,0.06l-1.19 0c-0.06,0 -0.12,-0.02 -0.16,-0.06 -0.04,-0.04 -0.06,-0.09 -0.06,-0.15l0 -1.2c0,-0.06 0.02,-0.12 0.06,-0.16 0.04,-0.03 0.1,-0.06 0.16,-0.06zm1.06 0.35l-0.93 0 0 0.93 0.93 0 0 -0.93z"/>
    </g>
    <g>
     <path class="fil15" d="M51.31 59.13l1.2 0c0.06,0 0.11,0.02 0.15,0.06 0.04,0.04 0.07,0.1 0.07,0.16l0 1.19c0,0.06 -0.03,0.12 -0.07,0.16 -0.04,0.04 -0.09,0.06 -0.15,0.06l-1.2 0c-0.06,0 -0.11,-0.02 -0.15,-0.06 -0.04,-0.04 -0.07,-0.1 -0.07,-0.16l0 -1.19c0,-0.06 0.03,-0.12 0.07,-0.16 0.03,-0.04 0.09,-0.06 0.15,-0.06zm1.06 0.35l-0.92 0 0 0.93 0.92 0 0 -0.93z"/>
     <path class="fil15" d="M53.52 59.13l1.19 0c0.07,0 0.12,0.02 0.16,0.06 0.04,0.04 0.06,0.1 0.06,0.16l0 1.19c0,0.06 -0.02,0.12 -0.06,0.16 -0.04,0.04 -0.1,0.06 -0.16,0.06l-1.19 0c-0.06,0 -0.12,-0.02 -0.16,-0.06 -0.04,-0.04 -0.06,-0.1 -0.06,-0.16l0 -1.19c0,-0.06 0.02,-0.12 0.06,-0.16 0.04,-0.04 0.1,-0.06 0.16,-0.06zm1.06 0.35l-0.93 0 0 0.93 0.93 0 0 -0.93z"/>
    </g>
    <g>
     <path class="fil15" d="M51.31 61.59l1.2 0c0.06,0 0.11,0.02 0.15,0.06 0.04,0.04 0.07,0.1 0.07,0.16l0 1.19c0,0.06 -0.03,0.12 -0.07,0.16 -0.04,0.04 -0.09,0.06 -0.15,0.06l-1.2 0c-0.06,0 -0.11,-0.02 -0.15,-0.06 -0.04,-0.04 -0.07,-0.1 -0.07,-0.16l0 -1.19c0,-0.06 0.03,-0.12 0.07,-0.16 0.03,-0.04 0.09,-0.06 0.15,-0.06zm1.06 0.35l-0.92 0 0 0.93 0.92 0 0 -0.93z"/>
     <path class="fil15" d="M53.52 61.59l1.19 0c0.07,0 0.12,0.02 0.16,0.06 0.04,0.04 0.06,0.1 0.06,0.16l0 1.19c0,0.06 -0.02,0.12 -0.06,0.16 -0.04,0.04 -0.1,0.06 -0.16,0.06l-1.19 0c-0.06,0 -0.12,-0.02 -0.16,-0.06 -0.04,-0.04 -0.06,-0.1 -0.06,-0.16l0 -1.19c0,-0.06 0.02,-0.12 0.06,-0.16 0.04,-0.04 0.1,-0.06 0.16,-0.06zm1.06 0.35l-0.93 0 0 0.93 0.93 0 0 -0.93z"/>
    </g>
   </g>
  </g>
 </g>
</svg>
